<?xml version="1.0"?>
<svg id="Layer_1" data-name="Layer 1" xmlns="http://www.w3.org/2000/svg" viewBox="0 0 213.37 73.28">
  <defs></defs>
  <g>
    <path class="cls-1" d="M117.26,19.98l-.13.49c-.46,1.77-1.5,3.1-3.16,4.07-1.69.98-4.25,1.48-7.6,1.48h-8.06c-2.47,0-4.55-.34-6.2-1.02-1.62-.66-2.81-1.52-3.56-2.55-.73-1.01-1.1-2.24-1.1-3.65v-1.64c0-1.41.37-2.65,1.11-3.68.74-1.04,1.93-1.9,3.55-2.54,1.65-.66,3.74-.99,6.21-.99h8.06c2.24,0,4.15.22,5.67.67,1.48.43,2.61,1.03,3.37,1.79.77.77,1.35,1.7,1.74,2.78l.16.43h2.5v-.79c-.31-2.65-1.27-5.16-2.86-7.44-1.59-2.28-3.67-4.1-6.19-5.4C108.25.69,105.42.03,102.34.03c-3.29,0-6.29.73-8.94,2.16-2.65,1.43-4.77,3.39-6.32,5.83-1.55,2.45-2.34,5.17-2.34,8.09v3.71c0,2.97.79,5.71,2.34,8.16,1.54,2.43,3.67,4.39,6.32,5.83,2.64,1.43,5.65,2.16,8.94,2.16s5.97-.68,8.49-2.03c2.52-1.34,4.61-3.2,6.21-5.52,1.61-2.33,2.54-4.93,2.76-7.72l.06-.71h-2.6Z"></path>
    <path class="cls-1" d="M191.99,17.47h0c-2.1-1.72-5.44-2.7-9.93-2.92l-11.47-.57c-2.13-.08-3.8-.29-4.99-.61-1.4-.38-1.99-.74-2.24-.98-.31-.29-.46-.71-.46-1.29s.18-1.04.55-1.36c.3-.25,1.02-.62,2.73-.96,1.45-.28,3.55-.43,6.27-.43h9.45c2.58,0,4.62.19,6.07.58,1.39.37,2.41.88,3.04,1.52.64.66,1.14,1.54,1.48,2.61l.15.45h2.63l-.12-.76c-.35-2.23-1.2-4.33-2.54-6.23-1.34-1.91-3.34-3.5-5.93-4.72C184.11.61,180.89,0,177.12,0c-3.47,0-6.49.49-8.99,1.46-2.53.98-4.5,2.32-5.85,3.98-1.37,1.69-2.07,3.53-2.07,5.48v.25c0,2.88,1.08,5.22,3.2,6.94,2.07,1.67,5.35,2.7,9.75,3.04l11.48.57c2.18.12,3.91.32,5.13.58,1.4.3,1.99.68,2.25.95.34.36.51.78.51,1.28,0,.61-.22,1.12-.67,1.53-.34.32-1.12.76-2.92,1.1-1.53.28-3.7.43-6.46.43h-10.02c-2.57,0-4.64-.22-6.15-.67-1.45-.42-2.49-.99-3.09-1.69-.62-.71-1.07-1.67-1.34-2.86l-.12-.51h-2.65l.09.73c.31,2.62,1.23,4.97,2.74,6.97,1.51,2,3.64,3.58,6.31,4.71,2.65,1.12,5.86,1.69,9.55,1.69s6.79-.49,9.39-1.46c2.65-.99,4.67-2.37,5.99-4.12,1.34-1.77,2.02-3.69,2.02-5.72v-.31c0-2.8-1.09-5.11-3.23-6.87Z"></path>
    <path class="cls-1" d="M210.17,55.28h0c-2.04-1.68-5.29-2.63-9.67-2.84l-11.17-.55c-2.07-.08-3.7-.28-4.86-.59-1.37-.37-1.94-.72-2.18-.95-.3-.28-.45-.7-.45-1.25s.18-1.02.54-1.32c.29-.25.99-.61,2.66-.94,1.41-.28,3.46-.42,6.1-.42h9.2c2.51,0,4.5.19,5.91.56,1.35.36,2.35.86,2.96,1.48.62.64,1.11,1.5,1.45,2.54l.14.44h2.56l-.12-.74c-.34-2.18-1.17-4.22-2.47-6.06-1.31-1.86-3.25-3.41-5.77-4.6-2.51-1.18-5.64-1.78-9.32-1.78-3.38,0-6.32.48-8.76,1.42-2.46.96-4.38,2.26-5.69,3.87-1.34,1.64-2.01,3.44-2.01,5.34v.24c0,2.81,1.05,5.08,3.12,6.75,2.01,1.63,5.21,2.63,9.49,2.96l11.18.55c2.13.12,3.8.31,4.99.57,1.36.29,1.94.66,2.19.92.34.35.5.76.5,1.25,0,.6-.21,1.09-.65,1.49-.33.31-1.09.74-2.84,1.07-1.49.28-3.61.42-6.29.42h-9.75c-2.5,0-4.52-.22-5.98-.65-1.41-.41-2.42-.97-3.01-1.65-.6-.69-1.04-1.63-1.3-2.79l-.11-.5h-2.58l.08.71c.3,2.56,1.2,4.84,2.67,6.78,1.47,1.94,3.54,3.49,6.15,4.59,2.58,1.09,5.71,1.65,9.3,1.65s6.61-.48,9.15-1.42c2.58-.96,4.54-2.31,5.84-4.02,1.31-1.72,1.97-3.59,1.97-5.57v-.31c0-2.72-1.06-4.97-3.15-6.69Z"></path>
    <path class="cls-1" d="M173.69,45.43c-1.4-2.28-3.4-4.18-5.72-5.52-2.52-1.49-5.5-2.13-7.81-3.89-2.37-1.77-3.9-4.61-4.07-7.56-.11-1.68.19-3.36.47-5.02.78-4.94.91-10.47-1.6-14.96-1.96-3.55-5.7-6.17-9.56-7.51-8.8-3.06-19.74,1.23-22.6,10.38-.9,2.84-.95,5.91-.78,8.86.21,5.18,3.03,10.11,7.46,12.82,1.97,1.28,4.28,1.98,6.36,3,2.05.99,3.83,2.56,4.9,4.59,1.25,2.25,1.44,4.92,1.02,7.43-.39,2.38-.8,4.73-.77,7.17-.09,4.59.94,8.91,4.1,12.37,6.59,7.37,19.49,7.59,26.38.55,3.92-3.95,4.85-8.87,4.58-14.26-.1-2.99-.78-5.9-2.36-8.44v-.02ZM144.1,54.5c.1-1.22.41-2.41.75-3.58,3.47-9.58-1.76-20.41-11.23-24.33-1.88-.81-3.45-1.28-5.2-2.35-1.34-.81-2.35-1.98-2.83-3.45-.7-2.15-.61-4.74.51-6.74,1.31-2.23,3.3-3.32,5.8-3.75,2.82-.47,5.7-.32,8.58-.35,2.25,0,4.43-.04,6.48.34,4.32.8,7.06,3.25,6.74,8.7-.11,1.95-.39,3.8-.82,5.5-2.09,8,1.63,15.42,8.78,19.58,1.68,1.03,3.56,1.67,5.42,2.33,1.49.54,3.39,1.88,4.3,3.15,1.76,2.46,1.89,7.33.5,9.85-2.04,3.69-5.73,4.67-10.68,4.73-2.09.03-1.85-.02-5.92-.13-4.56-.12-8.11-1.44-10.15-4.37-.52-.74-1.25-2.34-1.03-5.13Z"></path>
    <path class="cls-1" d="M136.8,52.77v20.51h-2.69v-15.36c.01-.85-.08-2.7-1.21-4.59-.95-1.59-2.17-2.43-2.86-2.88-2.16-1.45-4.34-1.74-5.54-1.81h-2.77c-1.44.14-3.62.59-5.71,2.06-.61.43-1.56,1.11-2.4,2.33-1.38,2.01-1.5,4.1-1.49,5.04v15.21h-2.69v-15.21c0-.93-.12-3.03-1.49-5.04-.84-1.22-1.79-1.9-2.4-2.33-2.09-1.47-4.27-1.92-5.71-2.06h-2.77c-1.19.07-3.38.36-5.54,1.81-.68.46-1.9,1.3-2.86,2.88-1.13,1.89-1.23,3.73-1.21,4.59v15.36h-2.69v-20.51c0-2.52.52-4.91,1.54-7.11,1.03-2.22,2.57-4.03,4.57-5.37,2.01-1.35,4.37-2.03,7.01-2.03,2.24,0,4.3.5,6.11,1.5,1.79.98,3.31,2.26,4.51,3.79.92,1.17,1.68,2.41,2.28,3.72.6-1.31,1.37-2.55,2.28-3.72,1.2-1.53,2.72-2.81,4.51-3.79,1.81-.99,3.86-1.5,6.11-1.5,2.64,0,4.99.68,7.01,2.03,2,1.34,3.54,3.15,4.57,5.37,1.02,2.2,1.54,4.59,1.54,7.11Z"></path>
  </g>
  <path class="cls-1" d="M36.82,0c8.37-.2,16.62,4.28,17.17,13.37.1,1.58-.39,4.89.62,6.06,1.13,1.3,4.29.77,5.9.88,6.84.43,12.25,5.32,13.75,11.93,1.87,8.28-1.28,18.03-10.1,20.47-1.95.54-3.97.3-5.75.82-3.51,1.02-2.24,4.33-2.57,7.19-1.81,15.94-27.45,16.77-31.79,2.11-.84-2.82-.29-4.84-.58-7.54-.18-1.62-1.23-2.01-2.71-2.12-2.67-.2-5.37.31-8.1-.01-14.94-1.8-17.15-25.05-4-31.2,3.26-1.52,5.59-1.4,9.02-1.66,4.08-.31,2.73-3.75,2.93-6.73C21.18,5.09,28.86.2,36.82,0ZM33.01,9.97c-.44,0-4.72,0-7.42,3.5-1.55,2.01-1.8,4.16-1.84,5.12,0,0,.15,1.91,1.43,3.57,2.56,3.33,7.03,2.26,15.58,3.63,1.15.18,11.38,1.86,14.28,6.29.19.29.5.76.72,1.45.81,2.57-.88,4.07-1.2,7.27-.12,1.16-.41,4.07,1.38,5.76,1.4,1.33,3.77,1.57,5.5.87,3.38-1.36,4.03-6.16,4.55-9.96.41-2.99.89-6.5-1.28-9.03-1-1.17-2.15-1.65-3.51-2.19-5.07-2.01-7.45.14-11.79-1.37-3.76-1.3-6.02-4.31-6.53-5-2.7-3.6-2.01-6.3-4.98-8.41-2.01-1.42-4.17-1.49-4.87-1.5ZM16.89,24.97c-.74.11-1.83.25-2.89,1.01-2.36,1.7-2.83,5.16-2.95,8.25-.11,2.73-.17,6.68.34,9.32.46,2.37,1.1,3.44,2.08,4.02,3.35,1.96,8.42-4.12,12.61-1.92.31.16,1.35.7,1.88,1.83,1.46,3.09-2.82,6.35-1.78,10.66.38,1.57,1.29,2.59,1.67,3,2.03,2.24,4.86,2.56,6.49,2.75,5.21.59,9.58-1.75,11.8-3.47,1.49-1.16,2.84-2.68,3.04-2.9.9-1.02,1.92-2.18,2.58-3.54,1.62-3.31,1.35-8.33-1.41-10.83-.46-.42-1.3-1.05-3.54-1.63-8.36-2.17-13.61,2.25-18.17-.95-1.25-.88-1.92-1.96-2.22-2.45-2.51-4.15.36-7.46-1.77-10.48-1.68-2.38-5.33-3-7.78-2.64Z"></path>
</svg>