<?xml version="1.0"?>
<svg id="Layer_1" data-name="Layer 1" xmlns="http://www.w3.org/2000/svg" viewBox="0 0 245.77 127.77">
  <defs></defs>
  <path class="cls-1" d="M1.94,64.01c0-12.15,7.92-20.78,19.68-20.78,4.39,0,9.02,1.18,13.41,3.45l.24,4.78h-.47c-2.43-4.23-6.98-6.9-13.09-6.9-10.58,0-16.78,7.84-16.78,19.13s6.51,18.82,16.46,18.82c6.35,0,12.23-2.9,15.29-8.55l.55.31c-3.29,6.74-9.25,10.35-16.54,10.35-10.98,0-18.74-8.55-18.74-20.62Z"></path>
  <path class="cls-1" d="M40.36,64.01c0-12,8.23-20.78,19.44-20.78s19.29,8.7,19.29,20.62-8.47,20.78-19.68,20.78-19.05-8.7-19.05-20.62ZM76.11,64.08c0-11.37-6.82-19.44-16.62-19.44s-16.15,7.84-16.15,19.05,6.9,19.52,16.62,19.52,16.15-7.84,16.15-19.13Z"></path>
  <path class="cls-1" d="M83.79,64.01c0-12.15,7.92-20.78,19.68-20.78,4.39,0,9.02,1.18,13.41,3.45l.24,4.78h-.47c-2.43-4.23-6.98-6.9-13.09-6.9-10.58,0-16.78,7.84-16.78,19.13s6.51,18.82,16.46,18.82c6.35,0,12.23-2.9,15.29-8.55l.55.31c-3.29,6.74-9.25,10.35-16.54,10.35-10.98,0-18.74-8.55-18.74-20.62Z"></path>
  <path class="cls-1" d="M122.21,64.01c0-12,8.23-20.78,19.44-20.78s19.29,8.7,19.29,20.62-8.47,20.78-19.68,20.78-19.05-8.7-19.05-20.62ZM157.96,64.08c0-11.37-6.82-19.44-16.62-19.44s-16.15,7.84-16.15,19.05,6.9,19.52,16.62,19.52,16.15-7.84,16.15-19.13Z"></path>
  <path class="cls-1" d="M165.64,64.01c0-12,8.23-20.78,19.44-20.78s19.29,8.7,19.29,20.62-8.47,20.78-19.68,20.78-19.05-8.7-19.05-20.62ZM201.39,64.08c0-11.37-6.82-19.44-16.62-19.44s-16.15,7.84-16.15,19.05,6.9,19.52,16.62,19.52,16.15-7.84,16.15-19.13Z"></path>
  <path class="cls-1" d="M240.05,76.24v-19.76c0-6.98-3.84-11.13-10.27-11.13-4.7,0-10.43,2.27-14.9,5.88v25.01c0,4.47.71,5.96,2.9,6.82v.47h-8.62v-.47c2.12-.78,2.9-2.43,2.9-6.82v-23.36c0-4.47-1.18-6.12-3.61-6.27v-.47l5.88-1.8h.55v5.8c5.72-4.7,10.9-6.9,15.99-6.9,7.53,0,12,4.86,12,13.33v19.68c0,4.39.71,6.04,2.9,6.82v.47h-8.62v-.47c2.12-.78,2.9-2.59,2.9-6.82Z"></path>
</svg>