<?xml version="1.0"?>
<svg id="Layer_1" data-name="Layer 1" xmlns="http://www.w3.org/2000/svg" viewBox="0 0 245.77 127.77">
  <defs></defs>
  <path class="cls-1" d="M22.63,87.59c1.65,0,3.84-1.02,6.27-4.23.31-.39.86,0,.47.47-3.45,4.31-6.59,6.12-9.33,6.12-4.16,0-6.04-3.68-5.02-9.25l5.33-30.03h-5.41c-.63,0-.63-.86,0-.86,8.55,0,11.05-7.06,12.15-11.6.16-.55.78-.47.71.08l-2.04,11.53h8.78c.63,0,.63.86,0,.86h-8.94l-5.33,30.26c-.78,4.39.08,6.66,2.35,6.66Z"></path>
  <path class="cls-1" d="M31.64,73.32c0-11.37,9.02-24.3,22.66-24.3,5.33,0,11.05,1.25,11.05,7.21,0,8.47-12.7,13.88-28.46,14.9v.86c0,9.64,4.7,16.31,13.25,16.31,5.57,0,11.13-3.76,14.35-10.66.24-.47.71-.24.55.24-3.14,7.21-9.41,12.07-17.64,12.07-10.74,0-15.76-7.84-15.76-16.62ZM60.18,55.68c0-4.47-2.82-6.12-6.19-6.12-10.35,0-16.46,11.05-17.01,20.93,11.45-.94,23.21-4.94,23.21-14.82Z"></path>
  <path class="cls-1" d="M68.49,89.16l4.39-24.93c1.88-10.82.86-12.94-2.67-14.5-.47-.24-.31-.86.31-.63,4.86,2.12,8.55,5.33,7.37,16.07l-.55,3.53-.47,1.72v-2.04c.31-1.18.63-2.12,1.02-3.21,3.61-10.04,10.51-16.15,14.19-16.15,2.82,0,4,1.8,4,3.53,0,1.57-1.1,3.06-2.98,3.06-2.59,0-3.29-2.59-5.49-2.59-2.67,0-7.76,7.53-10.27,15.68v.08l-3.61,20.38h-5.25Z"></path>
  <path class="cls-1" d="M96.4,89.16l4.39-24.93c1.88-10.82.86-12.94-2.67-14.5-.47-.24-.31-.86.31-.63,4.86,2.12,8.55,5.33,7.37,16.07l-.55,3.53-.47,1.72v-2.04c.31-1.18.63-2.12,1.02-3.21,3.61-10.04,10.51-16.15,14.19-16.15,2.82,0,4,1.8,4,3.53,0,1.57-1.1,3.06-2.98,3.06-2.59,0-3.29-2.59-5.49-2.59-2.67,0-7.76,7.53-10.27,15.68v.08l-3.61,20.38h-5.25Z"></path>
  <path class="cls-1" d="M155.04,86.97c2.2,0,4.16-2.35,5.17-3.61.31-.39.78,0,.55.31-.86,1.18-4.86,6.27-9.09,6.27-3.06,0-4.16-2.43-2.98-9.25-2.67,3.61-7.68,9.25-14.58,9.25s-13.09-5.17-13.09-14.58c0-13.41,7.06-26.34,22.74-26.34,6.66,0,8.78,2.98,12.15,2.98,1.49,0,2.12-.78,2.67-2.2.16-.47.78-.39.71.08l-5.8,33.4c-.47,2.51.08,3.68,1.57,3.68ZM135.36,88.53c6.43,0,11.21-5.96,13.64-9.56l4.23-24.54c-2.04-2.67-4.86-4.7-9.25-4.7-11.05,0-17.8,13.09-17.8,25.79,0,7.6,3.14,13.01,9.17,13.01Z"></path>
</svg>