<?xml version="1.0"?>
<svg id="Layer_1" data-name="Layer 1" xmlns="http://www.w3.org/2000/svg" viewBox="0 0 245.77 127.77">
  <defs></defs>
  <path class="cls-1" d="M26.26,83.33h-12.39L0,42.8h11.68l8.55,27.68h.16l8.55-27.68h11.05l-13.72,40.53Z"></path>
  <path class="cls-1" d="M53.78,65.77c.31,7.13,3.68,10.27,9.96,10.27,4.47,0,8.08-2.74,8.78-5.25h9.8c-3.14,9.64-9.8,13.64-18.97,13.64-12.78,0-20.7-8.78-20.7-21.33s8.39-21.4,20.7-21.4c13.8,0,20.54,11.6,19.68,24.07h-29.24ZM71.89,58.72c-1.02-5.64-3.45-8.62-8.86-8.62-7.21,0-9.02,5.49-9.25,8.62h18.11Z"></path>
  <path class="cls-1" d="M98.24,70.16c0,4.78,4.23,6.82,8.55,6.82,3.14,0,7.29-1.25,7.29-5.17,0-3.37-4.7-4.63-12.62-6.27-6.51-1.49-12.86-3.61-12.86-10.82,0-10.35,8.94-13.01,17.64-13.01s17.01,2.98,17.88,12.94h-10.58c-.31-4.31-3.61-5.49-7.6-5.49-2.51,0-6.19.39-6.19,3.76,0,4,6.35,4.55,12.62,6.04,6.51,1.49,12.86,3.84,12.86,11.37,0,10.66-9.33,14.11-18.5,14.11s-18.66-3.53-19.05-14.27h10.58Z"></path>
  <path class="cls-1" d="M140.34,70.16c0,4.78,4.23,6.82,8.55,6.82,3.14,0,7.29-1.25,7.29-5.17,0-3.37-4.7-4.63-12.62-6.27-6.51-1.49-12.86-3.61-12.86-10.82,0-10.35,8.94-13.01,17.64-13.01s17.01,2.98,17.88,12.94h-10.58c-.31-4.31-3.61-5.49-7.6-5.49-2.51,0-6.19.39-6.19,3.76,0,4,6.35,4.55,12.62,6.04,6.51,1.49,12.86,3.84,12.86,11.37,0,10.66-9.33,14.11-18.5,14.11s-18.66-3.53-19.05-14.27h10.58Z"></path>
  <path class="cls-1" d="M182.99,65.77c.31,7.13,3.68,10.27,9.96,10.27,4.47,0,8.08-2.74,8.78-5.25h9.8c-3.14,9.64-9.8,13.64-18.97,13.64-12.78,0-20.7-8.78-20.7-21.33s8.39-21.4,20.7-21.4c13.8,0,20.54,11.6,19.68,24.07h-29.24ZM201.1,58.72c-1.02-5.64-3.45-8.62-8.86-8.62-7.21,0-9.02,5.49-9.25,8.62h18.11Z"></path>
  <path class="cls-1" d="M219.13,27.35h11.13v55.98h-11.13V27.35Z"></path>
</svg>